<?xml version="1.0" encoding="UTF-8"?>
<svg width="512" height="512" viewBox="0 0 512 512" xmlns="http://www.w3.org/2000/svg">
  <!-- Background circle -->
  <circle cx="256" cy="256" r="240" fill="#0066CC" stroke="#004499" stroke-width="8"/>
  
  <!-- Terminal/command icon -->
  <rect x="80" y="160" width="352" height="240" rx="20" fill="#1a1a1a" stroke="#333" stroke-width="4"/>
  <rect x="80" y="160" width="352" height="40" rx="20" fill="#333"/>
  
  <!-- Terminal dots -->
  <circle cx="108" cy="180" r="6" fill="#ff5f56"/>
  <circle cx="128" cy="180" r="6" fill="#ffbd2e"/>
  <circle cx="148" cy="180" r="6" fill="#27ca3f"/>
  
  <!-- Command prompt -->
  <text x="100" y="240" font-family="monospace" font-size="24" fill="#00ff00">$</text>
  <text x="120" y="240" font-family="monospace" font-size="20" fill="#fff">command</text>
  
  <!-- Output arrows -->
  <path d="M 120 260 L 140 280 L 120 300" stroke="#00ff00" stroke-width="4" fill="none"/>
  <text x="160" y="285" font-family="monospace" font-size="16" fill="#00ff00">MQTT</text>
  
  <!-- Network/wireless icon -->
  <circle cx="380" cy="120" r="40" fill="#ffffff" stroke="#0066CC" stroke-width="4"/>
  <path d="M 360 135 Q 380 115 400 135" stroke="#0066CC" stroke-width="3" fill="none"/>
  <path d="M 365 130 Q 380 120 395 130" stroke="#0066CC" stroke-width="3" fill="none"/>
  <circle cx="380" cy="130" r="3" fill="#0066CC"/>
  
  <!-- Home Assistant logo style -->
  <path d="M 100 350 L 140 320 L 180 350 L 160 350 L 160 380 L 120 380 L 120 350 Z" fill="#fff"/>
  <rect x="145" y="340" width="10" height="20" fill="#fff"/>
</svg>